<svg xmlns="http://www.w3.org/2000/svg" width="47.007" height="47.009" viewBox="0 0 47.007 47.009">
  <g id="user" transform="translate(0 0)">
    <path id="Path_1" data-name="Path 1" d="M17.576,37.76l-7.013,3.825a6.3,6.3,0,0,0-1.126.8,23.49,23.49,0,0,0,30.181.078,6.222,6.222,0,0,0-1.236-.828l-7.51-3.755a2.864,2.864,0,0,1-1.583-2.562V32.373a11.343,11.343,0,0,0,.71-.914,17.28,17.28,0,0,0,2.334-4.7,2.359,2.359,0,0,0,1.673-2.244V21.366a2.348,2.348,0,0,0-.786-1.743V15.076S34.154,8,24.572,8s-8.648,7.075-8.648,7.075v4.547a2.345,2.345,0,0,0-.786,1.743v3.145a2.358,2.358,0,0,0,1.087,1.979,15.608,15.608,0,0,0,2.844,5.883v2.874A2.867,2.867,0,0,1,17.576,37.76Z" transform="translate(-1.067 -0.904)" fill="#fff"/>
    <g id="Group_1" data-name="Group 1" transform="translate(0 0)">
      <path id="Path_2" data-name="Path 2" d="M23.906,0A23.49,23.49,0,0,0,8.38,41.475a6.245,6.245,0,0,1,1.115-.793l7.013-3.825A2.865,2.865,0,0,0,18,34.342V31.468a15.593,15.593,0,0,1-2.844-5.883,2.359,2.359,0,0,1-1.087-1.979V20.461a2.348,2.348,0,0,1,.786-1.743V14.171S13.922,7.1,23.5,7.1s8.648,7.075,8.648,7.075v4.547a2.345,2.345,0,0,1,.786,1.743v3.145a2.359,2.359,0,0,1-1.673,2.244,17.28,17.28,0,0,1-2.334,4.7,11.344,11.344,0,0,1-.71.914v2.947A2.863,2.863,0,0,0,29.8,36.976l7.51,3.755a6.253,6.253,0,0,1,1.233.827A23.5,23.5,0,0,0,23.906,0Z" transform="translate(0 0)" fill="#e7eced"/>
    </g>
  </g>
</svg>
